HIERARCHY
ROOT Hips
{
	OFFSET 0.000000 0.000000 0.000000 
	CHANNELS 6 Xposition Yposition Zposition Zrotation Yrotation Xrotation
	JOINT LeftUpLeg
	{
		OFFSET 1.363060 -1.794630 0.839290 
		CHANNELS 3 Zrotation Yrotation Xrotation
		JOINT LeftLeg
		{
			OFFSET 2.448110 -6.726130 0.000000 
			CHANNELS 3 Zrotation Yrotation Xrotation
			JOINT LeftFoot
			{
				OFFSET 2.562200 -7.039590 0.000000 
				CHANNELS 3 Zrotation Yrotation Xrotation
				JOINT LeftToeBase
				{
					OFFSET 0.157640 -0.433110 2.322550 
					CHANNELS 3 Zrotation Yrotation Xrotation
					End Site
					{
						OFFSET 0.000000 0.000000 0.000000 
					}
				}
			}
		}
	}
	JOINT RightUpLeg
	{
		OFFSET -1.305520 -1.794630 0.839290 
		CHANNELS 3 Zrotation Yrotation Xrotation
		JOINT RightLeg
		{
			OFFSET -2.542530 -6.985550 0.000000 
			CHANNELS 3 Zrotation Yrotation Xrotation
			JOINT RightFoot
			{
				OFFSET -2.568260 -7.056230 0.000000 
				CHANNELS 3 Zrotation Yrotation Xrotation
				JOINT RightToeBase
				{
					OFFSET -0.164730 -0.452590 2.363150 
					CHANNELS 3 Zrotation Yrotation Xrotation
					End Site
					{
						OFFSET 0.000000 0.000000 0.000000 
					}
				}
			}
		}
	}
	JOINT Spine
	{
		OFFSET 0.028270 2.035590 -0.193380 
		CHANNELS 3 Zrotation Yrotation Xrotation
		JOINT Spine1
		{
			OFFSET 0.056720 2.048850 -0.042750 
			CHANNELS 3 Zrotation Yrotation Xrotation
			JOINT Neck1
			{
				OFFSET -0.054170 1.746240 0.172020 
				CHANNELS 3 Zrotation Yrotation Xrotation
				JOINT Head
				{
					OFFSET 0.104070 1.761360 -0.123970 
					CHANNELS 3 Zrotation Yrotation Xrotation
					End Site
					{
						OFFSET 0.000000 0.000000 0.000000 
					}
				}
			}
			JOINT LeftArm
			{
				OFFSET 3.362410 1.200890 -0.311210 
				CHANNELS 3 Zrotation Yrotation Xrotation
				JOINT LeftForeArm
				{
					OFFSET 4.983000 -0.000000 -0.000000 
					CHANNELS 3 Zrotation Yrotation Xrotation
					JOINT LeftHand
					{
						OFFSET 3.483560 -0.000000 -0.000000 
						CHANNELS 3 Zrotation Yrotation Xrotation
						JOINT LeftHandIndex1
						{
							OFFSET 0.715260 -0.000000 -0.000000 
							CHANNELS 3 Zrotation Yrotation Xrotation
							End Site
							{
								OFFSET 0.000000 0.000000 0.000000 
							}
						}
					}
				}
			}
			JOINT RightArm
			{
				OFFSET -3.136600 1.374050 -0.404650 
				CHANNELS 3 Zrotation Yrotation Xrotation
				JOINT RightForeArm
				{
					OFFSET -5.241900 -0.000000 -0.000000 
					CHANNELS 3 Zrotation Yrotation Xrotation
					JOINT RightHand
					{
						OFFSET -3.444170 -0.000000 -0.000000 
						CHANNELS 3 Zrotation Yrotation Xrotation
						JOINT RightHandIndex1
						{
							OFFSET -0.622530 -0.000000 -0.000000 
							CHANNELS 3 Zrotation Yrotation Xrotation
							End Site
							{
								OFFSET 0.000000 0.000000 0.000000 
							}
						}
					}
				}
			}
		}
	}
}
MOTION
Frames: 13
Frame Time: 0.041667
0.482968 18.009207 36.840004 177.611508 2.383677 -171.029913 -28.137666 1.693403 -11.453885 1.948274 7.601075 22.032749 0.826438 -8.676386 -12.232182 0.270300 -3.344600 -9.239600 13.888241 8.535684 -37.858137 -7.397097 -14.411252 47.851653 1.182911 -9.696821 -10.179309 -0.032000 1.155400 -3.176500 1.201819 -1.683092 -1.703776 4.106094 -0.806535 -0.828999 2.711604 -5.113186 26.021532 2.199400 -2.516400 14.318900 -85.107441 -4.082408 29.706342 21.372189 -32.401251 -6.041719 0.975965 -0.445208 1.995569 -7.125000 0.000000 0.000000 89.999032 -3.158513 14.705697 -17.431056 28.070084 -4.182787 0.468326 0.228673 -6.341633 7.125000 0.000000 0.000000 
0.501267 18.018843 36.755324 178.604474 2.361896 -170.816618 -26.950209 1.648489 -11.465707 1.949725 7.635469 22.104012 0.841657 -8.571080 -12.463459 0.336900 -3.729900 -10.317900 15.203172 9.736062 -37.733830 -6.756182 -13.710835 44.966052 1.324728 -10.393091 -9.995713 -0.010600 0.665600 -1.829100 1.485765 -1.582736 -1.829794 4.050490 -0.729222 -1.260507 2.533652 -5.394122 26.032142 2.062100 -2.646400 14.358800 -84.919606 -4.363552 29.757341 21.770759 -32.904308 -6.278509 0.974600 -0.443708 1.807792 -7.125000 0.000000 0.000000 89.831461 -3.464156 15.279852 -17.692512 28.442165 -4.332589 0.452604 0.222793 -6.858591 7.125000 0.000000 0.000000 
0.511779 18.025267 36.642028 178.666958 2.423931 -170.725246 -26.861342 1.973238 -10.893621 1.871961 7.440147 21.511338 0.849794 -8.753021 -12.493610 0.321200 -3.642800 -10.073800 15.395314 10.354799 -37.686787 -6.195730 -13.062776 42.381267 1.370288 -10.563844 -9.466940 -0.001100 0.212500 -0.583900 1.476298 -1.404805 -1.527909 4.083637 -0.671839 -0.672246 2.552499 -5.722560 25.842625 1.970600 -2.779800 14.384000 -84.636590 -5.604732 30.263168 21.930246 -33.107162 -6.340107 0.986886 -0.434247 1.589954 -7.125000 0.000000 0.000000 89.998684 -2.734845 14.559680 -17.452346 28.138434 -4.205188 0.470853 0.211973 -6.472724 7.125000 0.000000 0.000000 
0.511779 18.025072 36.514327 178.480397 2.418931 -170.541115 -27.087126 2.336446 -10.419839 1.806621 7.261923 20.979432 0.864405 -9.074454 -12.555877 0.282900 -3.420900 -9.452800 15.353900 10.510024 -37.779805 -5.629748 -12.359456 39.665743 1.461843 -11.010725 -8.989910 -0.002000 0.289500 -0.795500 1.460277 -1.345308 -1.626782 4.201988 -0.630922 -0.761103 2.402654 -5.820984 25.702294 1.890800 -2.838200 14.284700 -84.474766 -5.736467 30.497720 22.396860 -33.660748 -6.596581 0.989836 -0.431007 1.555807 -7.125000 0.000000 0.000000 90.175770 -2.405764 13.807807 -17.117952 27.660577 -4.019956 0.489346 0.209348 -5.664940 7.125000 0.000000 0.000000 
0.509346 18.016701 36.390616 178.433046 2.207822 -170.279116 -27.152432 2.571459 -9.885840 1.708263 6.990426 20.169807 0.857988 -9.293635 -12.418573 0.283000 -3.421500 -9.454500 15.590740 10.461815 -38.137107 -5.116597 -11.650231 37.043859 1.652372 -11.972346 -8.420243 -0.021600 0.948300 -2.606600 1.475702 -1.621828 -2.281231 4.121206 -0.694578 -2.032820 2.334693 -5.615066 26.236030 1.963200 -2.756000 14.442500 -84.315925 -4.580690 29.915366 23.113854 -34.473240 -7.005936 0.986296 -0.421003 1.640934 -7.125000 0.000000 0.000000 90.139158 -3.290056 14.399347 -17.133498 27.616284 -4.020498 0.472586 0.236415 -5.477466 7.125000 0.000000 0.000000 
0.511390 18.011056 36.266711 178.279097 2.079219 -170.126602 -27.326936 2.871508 -9.169551 1.603093 6.690095 19.281633 0.841805 -9.383242 -12.196298 0.280200 -3.404700 -9.407700 15.733921 10.485735 -38.342685 -4.664075 -10.951350 34.555724 1.701257 -12.155362 -7.255315 -0.005800 0.492300 -1.352800 1.471174 -1.626225 -2.110609 4.219285 -0.719503 -1.556906 2.575011 -5.789730 26.219523 2.038700 -2.809800 14.482000 -84.193418 -5.350074 29.816398 23.308099 -34.706694 -7.105206 0.993742 -0.409164 1.545138 -7.125000 0.000000 0.000000 89.992059 -3.205531 14.844422 -17.288795 27.831705 -4.102851 0.456875 0.255499 -5.924607 7.125000 0.000000 0.000000 
0.509735 18.009012 36.145433 178.211742 2.354728 -169.808887 -27.523787 3.386546 -8.654682 1.483728 6.342152 18.257436 0.817822 -9.252449 -11.930628 0.320500 -3.639000 -10.063100 15.812712 10.829324 -38.625356 -4.269398 -10.264479 32.230119 1.574121 -11.395219 -6.316235 -0.001800 -0.271400 0.745600 1.401803 -1.395220 -2.065985 4.139029 -0.617018 -1.274861 2.745934 -5.981707 26.077155 2.074600 -2.871400 14.418600 -83.882812 -6.165926 30.205548 23.208022 -34.613267 -7.054535 0.997182 -0.397148 1.296047 -7.125000 0.000000 0.000000 89.985893 -3.253634 14.951133 -17.446623 28.077112 -4.187639 0.464301 0.239717 -6.103182 7.125000 0.000000 0.000000 
0.509930 18.002880 36.020262 178.215615 2.431184 -169.577637 -27.601843 3.907554 -7.997577 1.366256 5.975015 17.187982 0.812076 -9.258117 -11.833512 0.417000 -4.144800 -11.484400 15.824816 11.266371 -38.666020 -3.919012 -9.615826 30.078038 1.467002 -10.756251 -6.018909 -0.000100 -0.061600 0.169200 1.364989 -1.234304 -2.188002 4.101494 -0.519046 -1.504252 2.444406 -6.289880 26.063371 1.837800 -2.994300 14.413200 -83.589126 -6.275554 30.592436 23.433356 -34.896422 -7.227748 0.994273 -0.391045 1.130624 -7.125000 0.000000 0.000000 90.144598 -3.461454 15.025037 -17.688583 28.429019 -4.319298 0.458246 0.234658 -6.257220 7.125000 0.000000 0.000000 
0.514310 18.002588 35.882244 177.970634 1.601829 -169.858876 -27.657886 4.187725 -6.679063 1.283053 5.661412 16.299021 0.822521 -9.880176 -11.790752 0.432800 -4.221900 -11.701900 15.539313 11.215639 -38.016131 -3.602382 -9.037996 28.121333 1.401983 -10.440315 -6.491598 -0.006800 0.531600 -1.460700 1.317658 -1.716549 -2.019829 4.051537 -0.772316 -1.380889 1.971245 -6.452404 25.895171 1.508900 -3.072400 14.373000 -83.285388 -6.402221 30.253620 23.940245 -35.491200 -7.543278 0.992841 -0.386975 0.937922 -7.125000 0.000000 0.000000 90.352689 -3.077937 15.482709 -17.779158 28.565854 -4.376346 0.446793 0.248869 -6.320954 7.125000 0.000000 0.000000 
0.521804 18.001712 35.748021 177.843787 0.918464 -170.075341 -27.589967 4.400101 -5.427044 1.200054 5.336326 15.376075 0.798987 -10.332701 -11.433589 0.430700 -4.211800 -11.673300 15.327747 11.332046 -37.458826 -3.356766 -8.548790 26.520893 1.290983 -9.883246 -7.267308 -0.040100 1.293100 -3.555700 1.544777 -1.863765 -2.183303 4.572438 -0.823711 -1.692337 2.596170 -6.182742 26.061527 1.993400 -2.958600 14.300800 -83.464767 -6.397254 30.823154 23.979763 -35.510506 -7.556689 0.991446 -0.392306 0.713123 -7.125000 0.000000 0.000000 89.851727 -3.826846 15.681714 -18.074235 28.935805 -4.513555 0.443836 0.251777 -6.739657 7.125000 0.000000 0.000000 
0.525211 17.992563 35.620222 177.720930 0.752021 -169.987962 -27.691854 4.510672 -4.542424 1.121043 5.028709 14.501945 0.767753 -10.333981 -11.057367 0.419900 -4.159200 -11.524900 15.217120 11.413394 -37.481276 -3.178686 -8.147355 25.264714 1.117573 -8.942516 -7.770368 -0.125300 2.281800 -6.285100 1.462705 -1.893589 -2.193406 4.479493 -0.835628 -1.931417 2.920546 -6.001027 26.623713 2.125200 -2.817700 14.780200 -83.085659 -7.393071 31.036141 23.630373 -35.146594 -7.344938 0.992802 -0.385848 0.567104 -7.125000 0.000000 0.000000 89.748757 -4.175205 16.310094 -18.346832 29.321810 -4.663005 0.444675 0.247173 -7.255481 7.125000 0.000000 0.000000 
0.515088 17.980883 35.491158 176.990944 0.615905 -169.727657 -28.513055 4.580008 -3.879832 1.057875 4.756157 13.737859 0.753713 -10.371511 -10.846256 0.386300 -3.991200 -11.052000 14.695078 10.604210 -38.291586 -3.079603 -7.904590 24.538476 0.860887 -7.505067 -8.024915 -0.293700 3.484800 -9.631600 1.234639 -2.065042 -2.605967 4.328565 -0.890239 -2.594648 3.081860 -5.913166 26.941260 2.282600 -2.769300 14.833600 -82.813747 -6.805932 30.979074 23.788669 -35.334258 -7.477730 0.984545 -0.379239 0.625423 -7.125000 0.000000 0.000000 89.665776 -4.894607 16.333366 -18.308466 29.241849 -4.636959 0.446456 0.241366 -7.215430 7.125000 0.000000 0.000000 
0.527060 17.968229 35.358493 177.205298 0.696234 -169.858256 -28.161045 5.067799 -2.978824 0.995070 4.513605 13.049348 0.751402 -10.233694 -10.816134 0.405800 -4.089600 -11.329000 14.954862 11.224003 -38.145419 -3.039994 -7.813161 24.272371 0.789319 -7.260614 -9.134798 -0.407300 4.097200 -11.350200 1.270617 -1.862350 -1.842956 4.264091 -0.883296 -0.944160 3.332484 -6.334222 26.329409 2.292800 -2.953000 14.628800 -82.645235 -7.796710 31.048043 24.081082 -35.710290 -7.681745 0.987164 -0.381551 0.624196 -7.125000 0.000000 0.000000 90.014824 -2.974911 15.254474 -17.706761 28.472296 -4.336270 0.454357 0.236781 -6.441084 7.125000 0.000000 0.000000 
